<svg width="129" height="20" viewBox="0 0 129 20" fill="none" xmlns="http://www.w3.org/2000/svg">
<g opacity="0.6">
<path d="M5.56592 1.22656H8.75195L9.30127 13.5557L14.1475 1.22656H17.5532L9.83838 19H7.14062L5.56592 1.22656ZM3.47852 1.22656H6.89648L5.15088 15.0327L4.46729 19H0.402344L3.47852 1.22656ZM16.0884 1.22656H19.5308L16.4546 19H12.353L13.1221 14.6787L16.0884 1.22656ZM29.5771 15.7041L29.0034 19H21.4351L22.021 15.7041H29.5771ZM25.9517 1.22656L22.8633 19H18.8105L21.8745 1.22656H25.9517ZM29.8823 8.28223L29.333 11.4683H22.7534L23.3149 8.28223H29.8823ZM32.1284 1.22656L31.5547 4.53467H23.9375L24.5234 1.22656H32.1284ZM44.4575 9.50293L43.3345 16.9248C42.8381 17.4782 42.2399 17.9258 41.54 18.2676C40.8402 18.6094 40.1077 18.8576 39.3428 19.0122C38.5778 19.175 37.8332 19.2482 37.1089 19.2319C36.0103 19.2157 35.0866 19 34.3379 18.585C33.5973 18.1618 33.0195 17.5921 32.6045 16.876C32.1895 16.1517 31.9168 15.3338 31.7866 14.4224C31.6646 13.5109 31.6646 12.5669 31.7866 11.5903L32.2383 8.66064C32.3685 7.63525 32.6167 6.65869 32.9829 5.73096C33.3491 4.80322 33.8252 3.97721 34.4111 3.25293C35.0052 2.52865 35.7295 1.96305 36.584 1.55615C37.4385 1.14111 38.4313 0.945801 39.5625 0.970215C40.832 0.986491 41.8656 1.25098 42.6631 1.76367C43.4688 2.26823 44.0547 2.97217 44.4209 3.87549C44.7952 4.77881 44.9743 5.83675 44.958 7.04932L41.0518 7.0249C41.0762 6.57731 41.068 6.146 41.0273 5.73096C40.9867 5.31592 40.8483 4.97412 40.6123 4.70557C40.3844 4.42887 39.9938 4.27832 39.4404 4.25391C38.8545 4.22135 38.3743 4.34342 38 4.62012C37.6257 4.88867 37.3245 5.25081 37.0967 5.70654C36.877 6.16227 36.7101 6.65055 36.5962 7.17139C36.4904 7.69222 36.409 8.17643 36.3521 8.62402L35.9126 11.6025C35.8638 12.0094 35.8149 12.4611 35.7661 12.9575C35.7173 13.4458 35.7254 13.9178 35.7905 14.3735C35.8556 14.8211 36.0225 15.1914 36.291 15.4844C36.5677 15.7773 36.999 15.9279 37.585 15.936C37.8372 15.9442 38.0488 15.9157 38.2197 15.8506C38.3988 15.7855 38.5737 15.7041 38.7446 15.6064C38.9155 15.5088 39.1068 15.4193 39.3184 15.3379L39.8921 12.4448H37.8291L38.3418 9.50293H44.4575ZM53.9302 5.15723L48.376 19H43.8838L52.2822 1.22656H55.1143L53.9302 5.15723ZM54.0767 19L53.2954 4.74219L53.3931 1.22656H56.0908L58.3369 19H54.0767ZM55.334 12.3716L54.748 15.6797H47.2529L47.8389 12.3716H55.334Z" fill="#E59D48"/>
<path d="M73.9863 8.70947L73.5713 11.395C73.4248 12.4285 73.1644 13.4214 72.79 14.3735C72.4238 15.3175 71.9355 16.1598 71.3252 16.9004C70.7148 17.641 69.9702 18.2269 69.0913 18.6582C68.2205 19.0814 67.2155 19.2767 66.0762 19.2441C64.9857 19.2197 64.0742 18.9837 63.3418 18.5361C62.6094 18.0885 62.0356 17.4985 61.6206 16.7661C61.2056 16.0256 60.9329 15.1995 60.8027 14.2881C60.6725 13.3685 60.6644 12.4285 60.7783 11.4683L61.1812 8.77051C61.3276 7.76139 61.584 6.78483 61.9502 5.84082C62.3245 4.89681 62.821 4.05452 63.4395 3.31396C64.0579 2.56527 64.8026 1.9834 65.6733 1.56836C66.5522 1.14518 67.5614 0.94987 68.7007 0.982422C69.7749 0.998698 70.6742 1.23063 71.3984 1.67822C72.1309 2.12581 72.7046 2.71582 73.1196 3.44824C73.5428 4.18066 73.8195 5.00667 73.9497 5.92627C74.0881 6.83773 74.1003 7.76546 73.9863 8.70947ZM69.4453 11.4683L69.8604 8.73389C69.901 8.38395 69.9458 7.96891 69.9946 7.48877C70.0435 7.00049 70.0435 6.52035 69.9946 6.04834C69.9458 5.57633 69.8034 5.17757 69.5674 4.85205C69.3314 4.52653 68.953 4.35156 68.4321 4.32715C67.8136 4.28646 67.3172 4.40853 66.9429 4.69336C66.5685 4.97005 66.2715 5.34033 66.0518 5.8042C65.8402 6.25993 65.6815 6.75228 65.5757 7.28125C65.4699 7.80208 65.3844 8.29443 65.3193 8.7583L64.9165 11.4805C64.8758 11.8304 64.827 12.2495 64.77 12.7378C64.7212 13.2179 64.7171 13.6981 64.7578 14.1782C64.7985 14.6584 64.9368 15.0612 65.1729 15.3867C65.417 15.7122 65.8035 15.8872 66.3325 15.9116C66.9266 15.9442 67.4108 15.818 67.7852 15.5332C68.1676 15.2484 68.4688 14.874 68.6885 14.4102C68.9163 13.9463 69.0832 13.4539 69.189 12.9331C69.3029 12.4041 69.3883 11.9159 69.4453 11.4683ZM87.4629 1.22656L86.8892 4.53467H80.9443L78.4297 19H74.3525L77.4409 1.22656H87.4629ZM78.9668 7.34229L81.6646 7.3667C82.7469 7.39925 83.695 7.65153 84.5088 8.12354C85.3307 8.59554 85.9533 9.25065 86.3765 10.0889C86.8078 10.9271 86.9868 11.8996 86.9136 13.0063C86.8403 13.9097 86.6125 14.7316 86.23 15.4722C85.8556 16.2127 85.3592 16.8475 84.7407 17.3765C84.1222 17.9054 83.4142 18.3123 82.6167 18.5972C81.8273 18.8739 80.985 19.0081 80.0898 19H74.3647L77.4531 1.22656H81.5303L79.0278 15.7041L80.2363 15.7285C80.7653 15.7204 81.2048 15.582 81.5547 15.3135C81.9128 15.0449 82.1976 14.7072 82.4092 14.3003C82.6289 13.8853 82.7673 13.4417 82.8242 12.9697C82.8812 12.6198 82.8853 12.2739 82.8364 11.9321C82.7957 11.5822 82.6696 11.2892 82.458 11.0532C82.2546 10.8091 81.9494 10.6748 81.5425 10.6504L78.3931 10.6382L78.9668 7.34229ZM96.1665 12.7622L92.8706 12.75L91.7598 12.2251C90.6286 11.7043 89.8229 10.9881 89.3428 10.0767C88.8626 9.15706 88.6632 8.07878 88.7446 6.8418C88.8341 5.64551 89.1556 4.62826 89.709 3.79004C90.2705 2.95182 91.007 2.31299 91.9185 1.87354C92.8381 1.43408 93.8919 1.21436 95.0801 1.21436L100.744 1.22656L97.668 19H93.5908L96.0933 4.53467L94.9214 4.51025C94.1157 4.51839 93.5705 4.80322 93.2856 5.36475C93.009 5.92627 92.8258 6.54883 92.7363 7.23242C92.6875 7.59049 92.6468 7.95671 92.6143 8.33105C92.5898 8.7054 92.6509 9.01872 92.7974 9.271C92.952 9.52327 93.2612 9.66569 93.7251 9.69824L96.6792 9.71045L96.1665 12.7622ZM94.3232 11.1631L89.9897 19H85.3755L89.6724 11.1631H94.3232ZM107.36 11.4438H103.588L104.077 8.63623L106.762 8.66064C107.21 8.65251 107.604 8.56706 107.946 8.4043C108.296 8.24154 108.577 8.00553 108.789 7.69629C109.008 7.38704 109.155 7.00863 109.228 6.56104C109.285 6.18669 109.293 5.85303 109.252 5.56006C109.212 5.25895 109.09 5.01888 108.886 4.83984C108.691 4.65267 108.382 4.55501 107.958 4.54688L106.347 4.53467L103.82 19H99.7676L102.832 1.22656L108.093 1.23877C108.841 1.24691 109.545 1.3527 110.205 1.55615C110.864 1.75146 111.438 2.04443 111.926 2.43506C112.422 2.82568 112.801 3.3221 113.061 3.92432C113.321 4.51839 113.427 5.2264 113.378 6.04834C113.321 6.98421 113.081 7.76546 112.658 8.39209C112.235 9.01058 111.669 9.48258 110.961 9.80811C110.262 10.1336 109.464 10.3127 108.569 10.3452L107.36 11.4438ZM105.957 19H101.184L103.173 15.7041L106.103 15.7285C106.526 15.7122 106.884 15.6105 107.177 15.4233C107.47 15.228 107.702 14.9717 107.873 14.6543C108.052 14.3288 108.174 13.9707 108.239 13.5801C108.296 13.2952 108.329 12.9941 108.337 12.6768C108.353 12.3594 108.292 12.0868 108.154 11.8589C108.024 11.6229 107.771 11.4886 107.397 11.4561L104.125 11.4438L104.65 8.63623L108.032 8.64844L108.764 9.75928C109.545 9.78369 110.201 9.95459 110.729 10.272C111.267 10.5894 111.665 11.0369 111.926 11.6147C112.194 12.1925 112.296 12.868 112.231 13.6411C112.158 14.8537 111.84 15.8587 111.279 16.6562C110.725 17.4538 109.989 18.0479 109.069 18.4385C108.15 18.8291 107.112 19.0163 105.957 19ZM118.542 12.1885L124.743 1.22656H128.918L125.842 19H121.752L123.669 8.05029L117.456 19H113.281L116.369 1.22656H120.458L118.542 12.1885Z" fill="white"/>
</g>
</svg>
