<svg width="117" height="20" viewBox="0 0 117 20" fill="none" xmlns="http://www.w3.org/2000/svg">
<g opacity="0.6">
<path d="M6.06592 1.22656H9.25195L9.80127 13.5557L14.6475 1.22656H18.0532L10.3384 19H7.64062L6.06592 1.22656ZM3.97852 1.22656H7.39648L5.65088 15.0327L4.96729 19H0.902344L3.97852 1.22656ZM16.5884 1.22656H20.0308L16.9546 19H12.853L13.6221 14.6787L16.5884 1.22656ZM30.0771 15.7041L29.5034 19H21.9351L22.521 15.7041H30.0771ZM26.4517 1.22656L23.3633 19H19.3105L22.3745 1.22656H26.4517ZM30.3823 8.28223L29.833 11.4683H23.2534L23.8149 8.28223H30.3823ZM32.6284 1.22656L32.0547 4.53467H24.4375L25.0234 1.22656H32.6284ZM44.9575 9.50293L43.8345 16.9248C43.3381 17.4782 42.7399 17.9258 42.04 18.2676C41.3402 18.6094 40.6077 18.8576 39.8428 19.0122C39.0778 19.175 38.3332 19.2482 37.6089 19.2319C36.5103 19.2157 35.5866 19 34.8379 18.585C34.0973 18.1618 33.5195 17.5921 33.1045 16.876C32.6895 16.1517 32.4168 15.3338 32.2866 14.4224C32.1646 13.5109 32.1646 12.5669 32.2866 11.5903L32.7383 8.66064C32.8685 7.63525 33.1167 6.65869 33.4829 5.73096C33.8491 4.80322 34.3252 3.97721 34.9111 3.25293C35.5052 2.52865 36.2295 1.96305 37.084 1.55615C37.9385 1.14111 38.9313 0.945801 40.0625 0.970215C41.332 0.986491 42.3656 1.25098 43.1631 1.76367C43.9688 2.26823 44.5547 2.97217 44.9209 3.87549C45.2952 4.77881 45.4743 5.83675 45.458 7.04932L41.5518 7.0249C41.5762 6.57731 41.568 6.146 41.5273 5.73096C41.4867 5.31592 41.3483 4.97412 41.1123 4.70557C40.8844 4.42887 40.4938 4.27832 39.9404 4.25391C39.3545 4.22135 38.8743 4.34342 38.5 4.62012C38.1257 4.88867 37.8245 5.25081 37.5967 5.70654C37.377 6.16227 37.2101 6.65055 37.0962 7.17139C36.9904 7.69222 36.909 8.17643 36.8521 8.62402L36.4126 11.6025C36.3638 12.0094 36.3149 12.4611 36.2661 12.9575C36.2173 13.4458 36.2254 13.9178 36.2905 14.3735C36.3556 14.8211 36.5225 15.1914 36.791 15.4844C37.0677 15.7773 37.499 15.9279 38.085 15.936C38.3372 15.9442 38.5488 15.9157 38.7197 15.8506C38.8988 15.7855 39.0737 15.7041 39.2446 15.6064C39.4155 15.5088 39.6068 15.4193 39.8184 15.3379L40.3921 12.4448H38.3291L38.8418 9.50293H44.9575ZM54.4302 5.15723L48.876 19H44.3838L52.7822 1.22656H55.6143L54.4302 5.15723ZM54.5767 19L53.7954 4.74219L53.8931 1.22656H56.5908L58.8369 19H54.5767ZM55.834 12.3716L55.248 15.6797H47.7529L48.3389 12.3716H55.834Z" fill="#DC5426"/>
<path d="M69.1885 12.9941L73.1558 12.9453C73.1232 14.223 72.8018 15.342 72.1914 16.3022C71.5892 17.2544 70.7835 17.9909 69.7744 18.5117C68.7734 19.0244 67.6382 19.2686 66.3687 19.2441C65.2619 19.2197 64.3504 18.9797 63.6343 18.5239C62.9181 18.0601 62.3647 17.4497 61.9741 16.6929C61.5835 15.9279 61.3353 15.0815 61.2295 14.1538C61.1318 13.2261 61.14 12.2902 61.2539 11.3462L61.6445 8.86816C61.791 7.88346 62.0392 6.91911 62.3892 5.9751C62.7472 5.02295 63.2233 4.16439 63.8174 3.39941C64.4115 2.63444 65.1317 2.03223 65.978 1.59277C66.8325 1.15332 67.8172 0.945801 68.9321 0.970215C70.2261 0.994629 71.2759 1.29167 72.0815 1.86133C72.8872 2.43099 73.4772 3.19596 73.8516 4.15625C74.2259 5.11654 74.409 6.19482 74.4009 7.39111L70.3115 7.3667C70.3848 6.84587 70.4051 6.36165 70.3726 5.91406C70.3481 5.45833 70.2098 5.08398 69.9575 4.79102C69.7134 4.49805 69.278 4.33936 68.6514 4.31494C68.0573 4.29053 67.5812 4.4248 67.2231 4.71777C66.8651 5.01074 66.5924 5.3973 66.4053 5.87744C66.2181 6.34945 66.0798 6.84993 65.9902 7.37891C65.9089 7.90788 65.8397 8.39616 65.7827 8.84375L65.4165 11.3584C65.3758 11.7083 65.3107 12.1356 65.2212 12.6401C65.1398 13.1447 65.1032 13.6411 65.1113 14.1294C65.1276 14.6177 65.2415 15.0327 65.4531 15.3745C65.6729 15.7082 66.0635 15.8913 66.625 15.9238C67.2435 15.9401 67.7358 15.8221 68.1021 15.5698C68.4683 15.3094 68.7327 14.9554 68.8955 14.5078C69.0664 14.0521 69.1641 13.5475 69.1885 12.9941ZM83.019 5.15723L77.4648 19H72.9727L81.3711 1.22656H84.2031L83.019 5.15723ZM83.1655 19L82.3843 4.74219L82.4819 1.22656H85.1797L87.4258 19H83.1655ZM84.4229 12.3716L83.8369 15.6797H76.3418L76.9277 12.3716H84.4229ZM91.8691 1.22656L97.5576 1.23877C98.6074 1.26318 99.5107 1.49105 100.268 1.92236C101.033 2.34554 101.606 2.94775 101.989 3.729C102.371 4.50212 102.526 5.42171 102.453 6.48779C102.388 7.39111 102.217 8.1805 101.94 8.85596C101.663 9.53141 101.26 10.1214 100.731 10.626C100.211 11.1224 99.5514 11.5618 98.7539 11.9443L97.2891 12.7256H92.4551L93.0044 9.41748L96.0806 9.4541C96.5851 9.43783 96.992 9.31169 97.3013 9.07568C97.6105 8.83154 97.8465 8.51823 98.0093 8.13574C98.172 7.74512 98.2778 7.32601 98.3267 6.87842C98.3755 6.57731 98.4121 6.25179 98.4365 5.90186C98.4609 5.54378 98.404 5.23861 98.2656 4.98633C98.1273 4.72591 97.8465 4.57943 97.4233 4.54688L95.3848 4.53467L92.8579 19H88.8052L91.8691 1.22656ZM96.52 19L94.8354 11.1387L98.9614 11.1143L100.878 18.7925V19H96.52ZM110.607 14.1782C110.664 13.8608 110.668 13.576 110.619 13.3237C110.57 13.0715 110.473 12.8517 110.326 12.6646C110.188 12.4692 110.005 12.2902 109.777 12.1274C109.557 11.9647 109.313 11.8141 109.044 11.6758C108.45 11.391 107.893 11.0736 107.372 10.7236C106.851 10.3656 106.391 9.96273 105.993 9.51514C105.602 9.06755 105.305 8.56299 105.102 8.00146C104.906 7.43994 104.829 6.79704 104.87 6.07275C104.918 5.25895 105.126 4.53467 105.492 3.8999C105.858 3.257 106.339 2.71989 106.933 2.28857C107.527 1.84912 108.19 1.51953 108.922 1.2998C109.655 1.07194 110.399 0.966146 111.156 0.982422C112.247 0.998698 113.162 1.25098 113.903 1.73926C114.643 2.22754 115.201 2.88672 115.575 3.7168C115.95 4.54688 116.125 5.47461 116.1 6.5L112.06 6.51221C112.068 6.17855 112.06 5.83675 112.035 5.48682C112.011 5.13688 111.909 4.84391 111.73 4.60791C111.559 4.36377 111.254 4.23763 110.814 4.22949C110.465 4.22135 110.155 4.3068 109.887 4.48584C109.618 4.66488 109.398 4.90088 109.228 5.19385C109.065 5.47868 108.955 5.78385 108.898 6.10938C108.849 6.38607 108.869 6.63835 108.959 6.86621C109.049 7.09408 109.183 7.3016 109.362 7.48877C109.541 7.67594 109.74 7.84277 109.96 7.98926C110.188 8.13574 110.403 8.26595 110.607 8.37988C111.25 8.67285 111.828 9.00244 112.34 9.36865C112.853 9.73486 113.288 10.1499 113.646 10.6138C114.013 11.0695 114.281 11.5903 114.452 12.1763C114.631 12.7541 114.696 13.4132 114.647 14.1538C114.59 14.9839 114.395 15.7204 114.062 16.3633C113.728 16.998 113.288 17.5352 112.743 17.9746C112.198 18.4059 111.575 18.7314 110.875 18.9512C110.176 19.1628 109.423 19.2645 108.617 19.2563C107.73 19.2319 106.937 19.0732 106.237 18.7803C105.545 18.4792 104.963 18.0601 104.491 17.5229C104.019 16.9858 103.665 16.3551 103.429 15.6309C103.193 14.8984 103.083 14.0968 103.1 13.2261L107.201 13.2383C107.177 13.5964 107.169 13.9422 107.177 14.2759C107.185 14.6095 107.238 14.9066 107.335 15.167C107.433 15.4274 107.6 15.6349 107.836 15.7896C108.08 15.936 108.426 16.0093 108.874 16.0093C109.24 16.0093 109.541 15.9279 109.777 15.7651C110.013 15.5942 110.196 15.3704 110.326 15.0938C110.465 14.8089 110.558 14.5037 110.607 14.1782Z" fill="white"/>
</g>
</svg>
